<?xml version="1.0" encoding="utf-8"?>
<!-- Generator: Adobe Illustrator 28.2.0, SVG Export Plug-In . SVG Version: 6.00 Build 0)  -->
<svg version="1.1" id="Layer_1" xmlns="http://www.w3.org/2000/svg" xmlns:xlink="http://www.w3.org/1999/xlink" x="0px" y="0px"
	 viewBox="0 0 841.89 595.28" style="enable-background:new 0 0 841.89 595.28;" xml:space="preserve">
<style type="text/css">
	.st0{fill:#010101;}
</style>
<g>
	<g>
		<path class="st0" d="M236.9,388.34c4.44-0.93,11.46-1.64,18.59-1.64c10.17,0,16.72,1.75,21.63,5.73
			c4.09,3.04,6.55,7.71,6.55,13.91c0,7.61-5.03,14.27-13.33,17.31v0.23c7.48,1.88,16.25,8.07,16.25,19.76
			c0,6.78-2.69,11.93-6.66,15.78c-5.5,5.03-14.38,7.37-27.24,7.37c-7.02,0-12.39-0.47-15.78-0.94V388.34z M247.07,420.61h9.23
			c10.76,0,17.07-5.62,17.07-13.21c0-9.23-7.02-12.86-17.3-12.86c-4.68,0-7.36,0.35-9,0.7V420.61z M247.07,458.37
			c1.98,0.35,4.91,0.48,8.53,0.48c10.52,0,20.22-3.86,20.22-15.32c0-10.76-9.23-15.2-20.34-15.2h-8.42V458.37z"/>
		<path class="st0" d="M318.89,441.3l-8.18,24.79h-10.52l26.77-78.8h12.28l26.89,78.8h-10.87l-8.42-24.79H318.89z M344.73,433.35
			l-7.72-22.68c-1.75-5.15-2.92-9.82-4.09-14.38h-0.24c-1.17,4.67-2.45,9.47-3.97,14.26l-7.72,22.8H344.73z"/>
		<path class="st0" d="M383.59,466.09v-78.8h11.1l25.26,39.87c5.84,9.24,10.4,17.54,14.15,25.61l0.23-0.11
			c-0.94-10.53-1.17-20.11-1.17-32.39v-32.98h9.59v78.8h-10.29l-25.02-39.98c-5.5-8.77-10.76-17.77-14.73-26.3l-0.35,0.11
			c0.59,9.94,0.82,19.4,0.82,32.5v33.67H383.59z"/>
		<path class="st0" d="M533.75,425.87c0,27.13-16.49,41.5-36.59,41.5c-20.81,0-35.43-16.14-35.43-39.98
			c0-25.02,15.55-41.39,36.59-41.39C519.83,386,533.75,402.49,533.75,425.87z M472.6,427.15c0,16.84,9.11,31.92,25.14,31.92
			c16.13,0,25.25-14.85,25.25-32.74c0-15.66-8.18-32.03-25.14-32.03C481.02,394.3,472.6,409.86,472.6,427.15z"/>
		<path class="st0" d="M547.47,460.13l43.72-63.95v-0.35h-39.98v-8.54h53.19v6.2l-43.49,63.72v0.34h44.08v8.54h-57.52V460.13z"/>
	</g>
	<g>
		<path class="st0" d="M88.31,585.95c-3.74,1.87-11.22,3.74-20.81,3.74c-22.21,0-38.93-14.03-38.93-39.87
			c0-24.66,16.72-41.39,41.15-41.39c9.82,0,16.02,2.1,18.71,3.51l-2.46,8.3c-3.86-1.88-9.35-3.27-15.9-3.27
			c-18.47,0-30.75,11.8-30.75,32.5c0,19.29,11.1,31.68,30.28,31.68c6.19,0,12.51-1.29,16.6-3.27L88.31,585.95z"/>
		<path class="st0" d="M171.83,548.3c0,27.13-16.49,41.51-36.59,41.51c-20.81,0-35.43-16.14-35.43-39.98
			c0-25.02,15.55-41.39,36.59-41.39C157.92,508.44,171.83,524.92,171.83,548.3z M110.69,549.59c0,16.84,9.11,31.92,25.14,31.92
			c16.13,0,25.25-14.85,25.25-32.74c0-15.66-8.18-32.03-25.14-32.03C119.1,516.74,110.69,532.29,110.69,549.59z"/>
		<path class="st0" d="M190.93,588.52v-78.8h11.1l25.26,39.87c5.84,9.24,10.4,17.54,14.15,25.61l0.23-0.11
			c-0.94-10.53-1.17-20.11-1.17-32.39v-32.98h9.59v78.8H239.8l-25.02-39.98c-5.49-8.77-10.75-17.77-14.73-26.3l-0.35,0.11
			c0.59,9.94,0.82,19.4,0.82,32.5v33.67H190.93z"/>
		<path class="st0" d="M272.35,576.13c4.56,2.81,11.22,5.15,18.24,5.15c10.4,0,16.48-5.5,16.48-13.45c0-7.36-4.21-11.58-14.85-15.66
			c-12.86-4.56-20.81-11.22-20.81-22.33c0-12.28,10.17-21.4,25.49-21.4c8.07,0,13.91,1.88,17.42,3.86l-2.81,8.3
			c-2.57-1.41-7.83-3.74-14.96-3.74c-10.75,0-14.85,6.43-14.85,11.8c0,7.37,4.79,10.99,15.66,15.2
			c13.33,5.14,20.11,11.57,20.11,23.14c0,12.16-9,22.68-27.59,22.68c-7.6,0-15.9-2.23-20.11-5.03L272.35,576.13z"/>
		<path class="st0" d="M347.44,509.72v46.66c0,17.65,7.83,25.13,18.35,25.13c11.69,0,19.17-7.71,19.17-25.13v-46.66h10.29v45.95
			c0,24.2-12.75,34.14-29.82,34.14c-16.13,0-28.29-9.23-28.29-33.67v-46.42H347.44z"/>
		<path class="st0" d="M418.8,509.72h10.17v70.26h33.67v8.54H418.8V509.72z"/>
		<path class="st0" d="M484.53,518.37h-23.97v-8.65h58.34v8.65h-24.08v70.15h-10.29V518.37z"/>
		<path class="st0" d="M537.52,563.73l-8.18,24.79h-10.52l26.77-78.8h12.28l26.89,78.8h-10.87l-8.42-24.79H537.52z M563.35,555.79
			l-7.72-22.68c-1.75-5.15-2.92-9.82-4.09-14.38h-0.24c-1.17,4.67-2.45,9.47-3.97,14.26l-7.72,22.8H563.35z"/>
		<path class="st0" d="M602.21,588.52v-78.8h11.1l25.26,39.87c5.84,9.24,10.4,17.54,14.15,25.61l0.23-0.11
			c-0.94-10.53-1.17-20.11-1.17-32.39v-32.98h9.59v78.8h-10.29l-25.02-39.98c-5.49-8.77-10.75-17.77-14.73-26.3l-0.35,0.11
			c0.59,9.94,0.82,19.4,0.82,32.5v33.67H602.21z"/>
		<path class="st0" d="M740.1,585.95c-3.74,1.87-11.22,3.74-20.81,3.74c-22.21,0-38.93-14.03-38.93-39.87
			c0-24.66,16.72-41.39,41.15-41.39c9.82,0,16.02,2.1,18.71,3.51l-2.46,8.3c-3.86-1.88-9.35-3.27-15.9-3.27
			c-18.47,0-30.75,11.8-30.75,32.5c0,19.29,11.1,31.68,30.28,31.68c6.19,0,12.51-1.29,16.6-3.27L740.1,585.95z"/>
		<path class="st0" d="M776.61,588.52v-33.43l-24.9-45.37h11.58l11.1,21.75c3.04,5.96,5.38,10.76,7.83,16.25h0.23
			c2.22-5.15,4.91-10.29,7.95-16.25l11.34-21.75h11.58l-26.42,45.25v33.56H776.61z"/>
	</g>
	<g>
		<path class="st0" d="M420.94,148.36c-54.66,0-98.97,44.31-98.97,98.97c0,31.69,14.9,59.9,38.07,78v-58.55
			c-1.97-6.13-3.03-12.67-3.03-19.46c0-35.3,28.63-63.93,63.93-63.93s63.93,28.63,63.93,63.93s-28.63,63.93-63.93,63.93
			c-0.91,0-1.84-0.02-2.73-0.07v35.07c0.91,0.02,1.82,0.03,2.73,0.03c54.66,0,98.97-44.31,98.97-98.97
			C519.92,192.68,475.6,148.36,420.94,148.36z"/>
		<g>
			<g>
				<g>
					<path class="st0" d="M409.62,5.47v134.7c0,0-29.67,3.12-40.21,12.1V49.59L409.62,5.47z"/>
				</g>
				<g>
					<path class="st0" d="M409.62,193.65v152.66c0,0-17.96,1.17-40.21-12.1V226.06C369.41,226.06,381.12,199.12,409.62,193.65z"/>
				</g>
			</g>
		</g>
	</g>
</g>
</svg>
